<?xml version="1.0" encoding="UTF-8"?>
<svg width="300" height="100" viewBox="0 0 300 100" xmlns="http://www.w3.org/2000/svg">
  <!-- Background Elements -->
  <defs>
    <linearGradient id="goldGradient" x1="0%" y1="0%" x2="100%" y2="100%">
      <stop offset="0%" stop-color="#FFD700" stop-opacity="1"/>
      <stop offset="100%" stop-color="#DAA520" stop-opacity="1"/>
    </linearGradient>
    <linearGradient id="purpleGradient" x1="0%" y1="0%" x2="100%" y2="100%">
      <stop offset="0%" stop-color="#4B0082" stop-opacity="1"/>
      <stop offset="100%" stop-color="#663399" stop-opacity="1"/>
    </linearGradient>
    <filter id="glow" x="-20%" y="-20%" width="140%" height="140%">
      <feGaussianBlur stdDeviation="2" result="blur"/>
      <feComposite in="SourceGraphic" in2="blur" operator="over"/>
    </filter>
  </defs>
  
  <!-- Main Symbol: Combines Cross with Ascending Growth -->
  <g id="mainSymbol">
    <!-- Stylized Cross -->
    <rect x="25" y="30" width="4" height="40" rx="1" fill="#FFFFFF"/>
    <rect x="15" y="40" width="24" height="4" rx="1" fill="#FFFFFF"/>
    
    <!-- Ascending Growth Chart/Plant (Crypto Lines) -->
    <path d="M30,70 Q40,60 45,65 Q55,55 60,60 Q70,45 75,50 Q85,30 90,35" 
          stroke="url(#goldGradient)" stroke-width="3" fill="none" stroke-linecap="round"/>
    
    <!-- Seed/Circle at the base of growth -->
    <circle cx="30" cy="70" r="5" fill="#4B0082"/>
    
    <!-- Light Rays/Prosperity -->
    <path d="M30,25 L35,15" stroke="#FFD700" stroke-width="1.5" stroke-linecap="round"/>
    <path d="M40,30 L50,25" stroke="#FFD700" stroke-width="1.5" stroke-linecap="round"/>
    <path d="M20,30 L10,25" stroke="#FFD700" stroke-width="1.5" stroke-linecap="round"/>
  </g>
  
  <!-- Ministry Name: Holistic Prosperity Ministry -->
  <g id="ministryName">
    <!-- Text with refined typography -->
    <text x="105" y="45" font-family="'Playfair Display', serif" font-weight="600" font-size="18" fill="#FFFFFF">Holistic Prosperity</text>
    <line x1="105" y1="50" x2="290" y2="50" stroke="url(#goldGradient)" stroke-width="1.5"/>
    <text x="105" y="65" font-family="'Playfair Display', serif" font-weight="500" font-size="16" fill="#FFFFFF">Ministry</text>
  </g>
</svg>
